<svg xmlns="http://www.w3.org/2000/svg" viewBox="100 175 280 280" shape-rendering="geometricPrecision">
  <!-- PileIt stack+play mark  same geometry as public/pileit-og-image.svg -->
  <defs>
    <linearGradient id="markgrad" x1="122.4" y1="208.6" x2="357.6" y2="418.6" gradientUnits="userSpaceOnUse">
      <stop offset="0%" stop-color="#fb923c"/>
      <stop offset="45%" stop-color="#f97316"/>
      <stop offset="100%" stop-color="#c2410c"/>
    </linearGradient>
    <linearGradient id="markshine" x1="0" y1="175" x2="0" y2="455" gradientUnits="userSpaceOnUse">
      <stop offset="0%" stop-color="rgba(255,255,255,0.28)"/>
      <stop offset="45%" stop-color="rgba(255,255,255,0.08)"/>
      <stop offset="100%" stop-color="rgba(255,255,255,0)"/>
    </linearGradient>
    <linearGradient id="markedge" x1="100" y1="0" x2="380" y2="0" gradientUnits="userSpaceOnUse">
      <stop offset="0%" stop-color="rgba(255,255,255,0.15)"/>
      <stop offset="30%" stop-color="rgba(255,255,255,0)"/>
    </linearGradient>
    <mask id="markmask">
      <rect x="122.4" y="208.6" width="235.2" height="53.2" rx="11.2" fill="white"/>
      <rect x="122.4" y="287.2" width="235.2" height="53.2" rx="11.2" fill="white"/>
      <rect x="122.4" y="365.8" width="235.2" height="53.2" rx="11.2" fill="white"/>
      <polygon points="184,203 184,427 324,315" fill="black"/>
    </mask>
    <radialGradient id="markglow" cx="50%" cy="50%" r="50%">
      <stop offset="0%" stop-color="#f97316" stop-opacity="0.28"/>
      <stop offset="100%" stop-color="#f97316" stop-opacity="0"/>
    </radialGradient>
  </defs>
  <rect x="100" y="175" width="280" height="280" fill="#0a0600"/>
  <ellipse cx="240" cy="315" rx="130" ry="130" fill="url(#markglow)"/>
  <g mask="url(#markmask)">
    <rect x="100" y="175" width="280" height="280" fill="url(#markgrad)"/>
    <rect x="100" y="175" width="280" height="280" fill="url(#markshine)"/>
    <rect x="100" y="175" width="280" height="280" fill="url(#markedge)"/>
  </g>
  <polygon points="184,203 184,427 324,315" fill="#7c2d12" fill-opacity="0.35"/>
  <polygon points="184,203 184,427 324,315" fill="none" stroke="#fb923c" stroke-width="4.2" stroke-linejoin="round" stroke-linecap="round" stroke-opacity="0.5"/>
</svg>
